<svg id="Layer_1" data-name="Layer 1" xmlns="http://www.w3.org/2000/svg" xmlns:xlink="http://www.w3.org/1999/xlink" viewBox="0 0 1200 1200"><defs><style>.cls-1{fill:#0c1339;}.cls-2{fill:url(#linear-gradient);}.cls-3{fill:url(#linear-gradient-2);}</style><linearGradient id="linear-gradient" x1="294.5" y1="1117.51" x2="294.5" y2="1117.51" gradientUnits="userSpaceOnUse"><stop offset="0" stop-color="#ec2390"/><stop offset="0.39" stop-color="#ed4290"/><stop offset="0.43" stop-color="#ee4b90"/><stop offset="0.74" stop-color="#f59085"/><stop offset="1" stop-color="#fec665"/></linearGradient><linearGradient id="linear-gradient-2" x1="432.38" y1="1632.19" x2="432.38" y2="1632.19" xlink:href="#linear-gradient"/></defs><path class="cls-1" d="M519.56,1195.64" transform="translate(0 -1)"/><path class="cls-1" d="M509.57,1194.22" transform="translate(0 -1)"/><path class="cls-1" d="M600,1C268.63,1,0,269.63,0,601c0,223.63,122.35,418.67,303.76,521.87l-3.33-1.91L436.5,1017.61C530.88,951.14,623,881.68,699,793.55c38.56-44.73,67.52-94.27,76.69-154,8.63-56.24-5.29-105.18-50.07-140.57-43.19-34.13-94.13-33.52-140.12-9.05-48.45,25.79-92.45,59.89-138.48,90.24-8.42,5.55-17.23,10.5-26.46,16.11-24.41-75-6.52-137.85,49.37-182,9.11-7.2,17.74-15.05,26.17-23,13.14-12.44,10.24-22.35,9.95-24.37-1.65-11.62-12.52-17.74-13.45-18.24-9.5-5.15-19.21-2.58-24.8-1.1-13.09,3.48-21.13,11.82-24.65,14.23C422.39,376,402.88,392.42,381,404.49c-29.66,16.35-61.16,19.53-90-3-24.7-19.3-32.77-54.61-19.68-90.51,25.2-69.1,78.08-112.44,141.89-142.59,196.5-92.85,415.86-26.75,533.09,159.21,120.38,191,105.09,421.6-38.8,595.34-66.85,80.72-146.23,143-267.5,231-27.37,19.85-50.49,35.72-66.41,46.45q13.14.57,26.41.58c331.37,0,600-268.63,600-600S931.37,1,600,1ZM277.55,563.72c46.75,18.21,92.93,25.27,139,46.11,0,95.74-.92,202.19-1.21,293.32-.05,13.49-.46,27.38-3.65,40.36-6.58,26.77-29.24,34.46-47.07,13.85-23.28-26.91-44.86-56.09-62.44-87C263.33,802.2,227.09,732.54,190.74,663c-7-13.49-11.28-28.92-14.26-44-6.46-32.58,8.39-56.11,41.73-60.76C237.51,555.58,259.64,556.74,277.55,563.72Z" transform="translate(0 -1)"/><path class="cls-1" d="M570,1200.26" transform="translate(0 -1)"/><path class="cls-1" d="M573.57,1200.43h0" transform="translate(0 -1)"/><path class="cls-1" d="M556.27,1199.42" transform="translate(0 -1)"/><path class="cls-1" d="M521,1195.83" transform="translate(0 -1)"/><path class="cls-2" d="M294.5,1117.51" transform="translate(0 -1)"/><path class="cls-3" d="M432.38,1632.19" transform="translate(0 -1)"/></svg>