<svg id="Layer_1" data-name="Layer 1" xmlns="http://www.w3.org/2000/svg" viewBox="0 0 1201 1201"><defs><style>.cls-1{fill:#fff;stroke:#231f20;stroke-miterlimit:10;}</style></defs><path class="cls-1" d="M303.76,1122.87c-1.12-.63-2.22-1.28-3.32-1.92h0Z" transform="translate(0.5 -0.5)"/><path class="cls-1" d="M600,1C268.63,1,0,269.63,0,601c0,222.26,120.86,416.27,300.44,520L436.5,1017.61C530.88,951.14,623,881.68,699,793.55c38.56-44.73,67.52-94.27,76.69-154,8.63-56.24-5.29-105.18-50.07-140.57-43.19-34.13-94.13-33.52-140.12-9.05-48.45,25.79-92.45,59.89-138.48,90.24-8.42,5.55-17.23,10.5-26.46,16.11-24.41-75-6.52-137.85,49.37-182,9.11-7.2,17.74-15.05,26.17-23,13.14-12.44,10.24-22.35,9.95-24.37-1.65-11.62-12.52-17.74-13.45-18.24-9.5-5.15-19.21-2.58-24.8-1.1-13.09,3.48-21.13,11.82-24.65,14.23C422.39,376,402.88,392.42,381,404.49c-29.66,16.35-61.16,19.53-90-3-24.7-19.3-32.77-54.61-19.68-90.51,25.2-69.1,78.08-112.44,141.89-142.59,196.5-92.85,415.86-26.75,533.09,159.21,120.38,191,105.09,421.6-38.8,595.34-66.85,80.72-146.23,143-267.5,231-27.37,19.85-50.49,35.72-66.41,46.45q13.14.57,26.41.58c331.37,0,600-268.63,600-600S931.37,1,600,1ZM277.55,563.72c46.75,18.21,92.93,25.27,139,46.11,0,95.74-.92,202.19-1.21,293.32-.05,13.49-.46,27.38-3.65,40.36-6.58,26.77-29.24,34.46-47.07,13.85-23.28-26.91-44.86-56.09-62.44-87C263.33,802.2,227.09,732.54,190.74,663c-7-13.49-11.28-28.92-14.26-44-6.46-32.58,8.39-56.11,41.73-60.76C237.51,555.58,259.64,556.74,277.55,563.72Z" transform="translate(0.5 -0.5)"/><path class="cls-1" d="M573.57,1200.43h0l-3.56-.16Z" transform="translate(0.5 -0.5)"/></svg>