<svg id="Layer_1" data-name="Layer 1" xmlns="http://www.w3.org/2000/svg" xmlns:xlink="http://www.w3.org/1999/xlink" viewBox="0 0 1200 1200"><defs><style>.cls-1{fill:#65cbe7;}.cls-2{fill:url(#linear-gradient);}.cls-3{fill:#0c1339;}</style><linearGradient id="linear-gradient" x1="766.52" y1="973.06" x2="301.39" y2="287.47" gradientUnits="userSpaceOnUse"><stop offset="0" stop-color="#ec2390"/><stop offset="0.39" stop-color="#ed4290"/><stop offset="0.43" stop-color="#ee4b90"/><stop offset="0.74" stop-color="#f59085"/><stop offset="1" stop-color="#fec665"/></linearGradient></defs><circle class="cls-1" cx="600" cy="601" r="600" transform="translate(-249.24 599.29) rotate(-45)"/><g id="BwHHIp.tif"><path class="cls-2" d="M530,1197c38.3-33.94,81.1-62.06,123.89-90.35,87.48-57.82,168.94-122.73,236.3-204.07,127.11-153.48,140.62-357.21,34.28-525.9C820.9,212.37,627.12,154,453.55,236c-56.37,26.64-103.09,64.92-125.34,126-11.57,31.72-4.44,62.91,17.38,80C371,461.8,398.86,459,425.06,444.56c19.36-10.67,36.6-25.18,54.94-37.73,3.11-2.13,10.21-9.5,21.77-12.57,4.94-1.31,13.52-3.59,21.91,1,.82.44,10.42,5.85,11.88,16.11.25,1.78,2.81,10.53-8.79,21.52-7.45,7.06-15.07,14-23.12,20.36-49.37,39-65.17,94.5-43.61,160.77,8.16-5,15.94-9.33,23.37-14.23,40.66-26.81,79.53-56.94,122.33-79.71,40.63-21.62,85.63-22.16,123.77,8,39.56,31.26,51.86,74.5,44.23,124.17-8.09,52.75-33.68,96.51-67.74,136-67.11,77.86-148.51,139.21-231.88,197.93-59.55,41.94-117.56,85.56-167.85,138.15,15.19,8.54,32.18,17.23,51,25.54,18,8,35.12,14.49,51,19.86A596.39,596.39,0,0,0,530,1197Z" transform="translate(0 -1)"/><path class="cls-3" d="M460,614c0,84.57-.81,178.61-1.07,259.11,0,11.91-.41,24.18-3.23,35.65-5.81,23.65-25.82,30.44-41.58,12.23-20.56-23.77-39.62-49.55-55.15-76.84C324.72,783.92,292.71,722.38,260.6,661c-6.23-11.92-10-25.55-12.6-38.83-5.71-28.78,7.41-49.57,36.86-53.68,17.05-2.37,36.6-1.35,52.42,4.81C378.57,589.34,419.37,595.58,460,614Z" transform="translate(0 -1)"/></g></svg>