<svg id="Layer_1" data-name="Layer 1" xmlns="http://www.w3.org/2000/svg" xmlns:xlink="http://www.w3.org/1999/xlink" viewBox="0 0 1200 1200"><defs><style>.cls-1{fill:#65cbe7;}.cls-2{fill:url(#linear-gradient);}.cls-3{fill:#0c1339;}.cls-4{fill:url(#linear-gradient-2);}</style><linearGradient id="linear-gradient" x1="789.75" y1="960.72" x2="265.81" y2="188.46" gradientUnits="userSpaceOnUse"><stop offset="0" stop-color="#ec2390"/><stop offset="0.39" stop-color="#ed4290"/><stop offset="0.43" stop-color="#ee4b90"/><stop offset="0.74" stop-color="#f59085"/><stop offset="1" stop-color="#fec665"/></linearGradient><linearGradient id="linear-gradient-2" x1="294.5" y1="1117.51" x2="294.5" y2="1117.51" xlink:href="#linear-gradient"/></defs><circle class="cls-1" cx="600" cy="601" r="600" transform="translate(-249.24 599.29) rotate(-45)"/><g id="BwHHIp.tif"><path class="cls-2" d="M283,1110.52c33.34,20.47,77.43,43.51,129.49,60.6,17,5.59,41.08,13.48,73.63,19.09,21.61,3.72,57.67,8.27,57.67,8.27h0C568.15,1182.64,603.47,1159,645,1129c131.84-95.47,201.88-151.79,267.5-231,143.89-173.74,159.18-404.38,38.8-595.34C834.07,116.65,614.71,50.55,418.21,143.4,354.4,173.55,301.52,216.89,276.32,286c-13.09,35.9-5,71.21,19.68,90.51,28.8,22.52,60.3,19.34,90,3,21.92-12.07,41.43-28.49,62.19-42.71,3.52-2.41,11.56-10.75,24.65-14.23,5.59-1.48,15.3-4.05,24.8,1.1.93.5,11.8,6.62,13.45,18.24.29,2,3.19,11.93-9.95,24.37-8.43,8-17.06,15.84-26.17,23-55.89,44.15-73.78,107-49.37,182,9.23-5.61,18-10.56,26.46-16.11,46-30.35,90-64.45,138.48-90.24,46-24.47,96.93-25.08,140.12,9.05,44.78,35.39,58.7,84.33,50.07,140.57-9.17,59.71-38.13,109.25-76.69,154-76,88.13-168.12,157.59-262.5,224.06" transform="translate(0 -1)"/><path class="cls-3" d="M421.52,584.83c0,95.74-.92,202.19-1.21,293.32-.05,13.49-.46,27.38-3.65,40.36-6.58,26.77-29.24,34.46-47.07,13.85-23.28-26.91-44.86-56.09-62.44-87C268.33,777.2,232.09,707.54,195.74,638c-7-13.49-11.28-28.92-14.26-44-6.46-32.58,8.39-56.11,41.73-60.76,19.3-2.69,41.43-1.53,59.34,5.45C329.3,556.93,375.48,564,421.52,584.83Z" transform="translate(0 -1)"/></g><path class="cls-4" d="M294.5,1117.51" transform="translate(0 -1)"/></svg>